<?xml version="1.0" encoding="utf-8"?>
<!-- Generator: Adobe Illustrator 15.0.2, SVG Export Plug-In . SVG Version: 6.00 Build 0)  -->
<!DOCTYPE svg PUBLIC "-//W3C//DTD SVG 1.1//EN" "http://www.w3.org/Graphics/SVG/1.1/DTD/svg11.dtd">
<svg version="1.1" xmlns="http://www.w3.org/2000/svg" xmlns:xlink="http://www.w3.org/1999/xlink" x="0px" y="0px"
	 width="559.227px" height="656.565px" viewBox="0 0 559.227 656.565" enable-background="new 0 0 559.227 656.565"
	 xml:space="preserve">
<g id="レイヤー_1">
	<g>
		
			<path fill="#FFFFFF" stroke="#000000" stroke-width="6" stroke-linecap="round" stroke-linejoin="round" stroke-miterlimit="10" d="
			M115.612,355.432c-13.378,1.876-28.958,5.754-37.066,10.684c-7.337,4.463-6.374,17.6-1.154,24.099
			c5.509,6.862,11.974,6.495,19.779,2.905c5.123-2.357,11.293-7.609,17.667-13.492c0.16-5.126,0.339-10.256,0.543-15.375
			C115.502,361.214,115.577,358.278,115.612,355.432z"/>
		
			<path fill="#FFFFFF" stroke="#000000" stroke-width="6" stroke-linecap="round" stroke-linejoin="round" stroke-miterlimit="10" d="
			M499.977,361.616c-7.5-4.56-21.389-8.217-34.018-10.226c0.316,6.816,0.751,14.31,1.339,22.763
			c0.106,1.527,0.211,3.033,0.313,4.529c4.959,4.379,9.68,8.068,13.74,9.937c7.807,3.591,14.27,3.958,19.779-2.904
			C506.351,379.216,507.314,366.077,499.977,361.616z"/>
		
			<path fill="#FFFFFF" stroke="#000000" stroke-width="6" stroke-linecap="round" stroke-linejoin="round" stroke-miterlimit="10" d="
			M125.43,629.265c-9.854,17.521,15.9,31.951,29.25,19.801c10.908-9.928,19.518-18.348,38.256-21.098
			c-14.35-5.906-27-13.281-37.752-21.871C142.067,611.226,131.448,618.566,125.43,629.265z"/>
		
			<path fill="#FFFFFF" stroke="#000000" stroke-width="6" stroke-linecap="round" stroke-linejoin="round" stroke-miterlimit="10" d="
			M424.005,644.267c11.037,14.283,38.46,1.312,30.443-17.121c-5.267-12.111-15.218-22.156-27.677-28.195
			c-8.158,7.618-17.849,14.689-29.308,20.867C410.143,625.823,416.355,634.367,424.005,644.267z"/>
		<path fill="none" stroke="#000000" stroke-width="6" stroke-linecap="round" stroke-linejoin="round" stroke-miterlimit="10" d="
			M75.308,386.816c3.333-2.397,5.688-4.991,11.784-8.097"/>
		<path fill="none" stroke="#000000" stroke-width="6" stroke-linecap="round" stroke-linejoin="round" stroke-miterlimit="10" d="
			M503.215,382.316c-3.333-2.397-5.688-4.991-11.783-8.097"/>
		<path fill="none" stroke="#000000" stroke-width="6" stroke-linecap="round" stroke-linejoin="round" stroke-miterlimit="10" d="
			M131.13,648.991c0.9-4.951,3.6-13.275,11.7-20.476"/>
		<path fill="none" stroke="#000000" stroke-width="6" stroke-linecap="round" stroke-linejoin="round" stroke-miterlimit="10" d="
			M446.31,647.382c-0.026-5.031-1.304-15.266-8.866-22.195"/>
		
			<path fill="#D0B698" stroke="#000000" stroke-width="6" stroke-linecap="round" stroke-linejoin="round" stroke-miterlimit="10" d="
			M111.331,138.898c0-6.969,5.641-12.618,12.6-12.618c4.081,0,7.697,1.951,10,4.964c5.569-9.111,12.283-16.97,19.913-23.729
			c-3.78-3.658-9.922-6.33-19.563-7.625c-31.05-4.174-46.917,11.166-50.542,31.725c-3.498,19.838,7.171,41.143,31.004,46.682
			c2.46-9.685,5.474-18.569,8.95-26.793C116.845,151.375,111.331,145.786,111.331,138.898z"/>
		<path d="M123.931,126.28c-6.959,0-12.6,5.649-12.6,12.618c0,6.888,5.514,12.477,12.362,12.605
			c2.479-5.866,5.191-11.399,8.112-16.638c0.687-1.231,1.4-2.434,2.126-3.622C131.628,128.231,128.011,126.28,123.931,126.28z"/>
		
			<path fill="#D0B698" stroke="#000000" stroke-width="6" stroke-linecap="round" stroke-linejoin="round" stroke-miterlimit="10" d="
			M484.238,123.515c-3.625-20.56-19.492-35.899-50.541-31.725c-10.765,1.447-17.166,4.61-20.789,8.945
			c6.867,5.93,13.257,12.745,19.272,20.518c0.292,0.377,0.57,0.758,0.857,1.136c2.296-3.095,5.963-5.109,10.108-5.109
			c6.959,0,12.6,5.649,12.6,12.618c0,6.109-4.335,11.202-10.093,12.366c4.277,8.283,7.745,17.199,10.521,27.142
			C477.937,162.855,487.59,142.516,484.238,123.515z"/>
		<path d="M455.746,129.898c0-6.969-5.641-12.618-12.6-12.618c-4.146,0-7.812,2.014-10.108,5.109
			c4.815,6.345,9.007,12.886,12.615,19.875C451.411,141.1,455.746,136.007,455.746,129.898z"/>
		
			<path fill="#D0B698" stroke="#000000" stroke-width="6" stroke-linecap="round" stroke-linejoin="round" stroke-miterlimit="10" d="
			M433.038,122.389c-0.287-0.378-0.565-0.759-0.857-1.136c-6.016-7.773-12.405-14.588-19.272-20.518
			c-29.797-25.728-68.582-34.79-124.728-33.123c-48.682,1.447-100.473,9.906-134.337,39.903
			c-7.63,6.758-14.343,14.617-19.913,23.729c-0.726,1.188-1.439,2.391-2.126,3.622c-2.921,5.239-5.633,10.771-8.112,16.638
			c-3.476,8.224-6.49,17.108-8.95,26.793c-4.767,18.77-7.463,40.533-7.462,66.257c0.002,45.133,8.866,67.528,8.332,110.879
			c-0.035,2.846-0.11,5.782-0.231,8.821c-0.204,5.119-0.383,10.249-0.543,15.375c-1.653,53.107-1.062,105.862-1.499,142.036
			c-0.401,33.204,14.646,62.704,41.845,84.433c10.752,8.59,23.402,15.965,37.752,21.871c25.113,10.337,55.418,16.186,89.844,16.186
			c50.265,0,87.456-9.652,114.684-24.336c11.459-6.178,21.149-13.249,29.308-20.867c20.359-19.008,31.17-41.422,36.009-61.896
			c11.47-48.523,9.966-84.08,4.831-158.371c-0.103-1.496-0.207-3.002-0.313-4.529c-0.588-8.453-1.022-15.947-1.339-22.763
			c-1.733-37.343,0.064-54.317-0.479-96.937c-0.463-36.271-3.195-63.161-9.306-85.047c-2.776-9.942-6.244-18.858-10.521-27.142
			C442.045,135.275,437.854,128.733,433.038,122.389z"/>
		
			<ellipse fill="#FFFFFF" stroke="#000000" stroke-width="6" stroke-linecap="round" stroke-linejoin="round" stroke-miterlimit="10" cx="214.38" cy="156.016" rx="54.9" ry="53.1"/>
		<circle cx="185.581" cy="158.715" r="18.9"/>
		<circle fill="#FFFFFF" cx="193.68" cy="163.215" r="5.4"/>
		
			<ellipse fill="#FFFFFF" stroke="#000000" stroke-width="6" stroke-linecap="round" stroke-linejoin="round" stroke-miterlimit="10" cx="352.081" cy="149.715" rx="54.9" ry="53.1"/>
		<circle cx="323.281" cy="152.416" r="18.9"/>
		<circle fill="#FFFFFF" cx="331.38" cy="156.916" r="5.4"/>
		
			<path fill="#FFFFFF" stroke="#000000" stroke-width="6" stroke-linecap="round" stroke-linejoin="round" stroke-miterlimit="10" d="
			M285.228,234.764c-10.784,0.188-12.401,4.999-21.685,6.657c-0.328,5.727-0.745,13.566-1.163,22.896c-0.9,20.1,24.6,15.6,24.6,3.6
			c0-9.129,0-25.714,0-33.132C286.42,234.764,285.843,234.753,285.228,234.764z"/>
		
			<path fill="#FFFFFF" stroke="#000000" stroke-width="6" stroke-linecap="round" stroke-linejoin="round" stroke-miterlimit="10" d="
			M286.98,267.916c0,12,25.5,16.5,24.6-3.6c-0.429-9.582-0.857-17.59-1.189-23.353c-11.689-0.533-13.115-5.813-23.411-6.179
			C286.98,242.201,286.98,258.786,286.98,267.916z"/>
		
			<path fill="#AC967B" stroke="#000000" stroke-width="6" stroke-linecap="round" stroke-linejoin="round" stroke-miterlimit="10" d="
			M324.934,214.718c-4.354-4.685-9.521-7.238-16.425-8.471c-3.664,5.366-12.791,9.169-23.479,9.169
			c-10.278,0-19.112-3.518-23.034-8.56c-7.391,1.417-12.753,4.185-17.15,9.26c-8.627,9.959-4.437,24.891,7.156,25.695
			c4.957,0.344,8.624,0.131,11.541-0.391c9.284-1.658,10.901-6.469,21.685-6.657c0.615-0.01,1.192,0,1.752,0.02
			c10.295,0.366,11.721,5.646,23.411,6.179c2.312,0.105,5.024,0.026,8.289-0.316C330.238,239.438,333.904,224.37,324.934,214.718z"
			/>
		<path d="M285.03,215.416c10.688,0,19.814-3.803,23.479-9.169c1.107-1.622,1.722-3.385,1.722-5.231c0-7.953-11.281-14.4-25.2-14.4
			c-13.917,0-25.2,6.447-25.2,14.4c0,2.08,0.778,4.054,2.166,5.84C265.918,211.897,274.752,215.416,285.03,215.416z"/>
	</g>
</g>
<g id="レイヤー_2">
	<g>
		<path fill="none" stroke="#000000" stroke-width="4" stroke-linecap="round" stroke-linejoin="round" stroke-miterlimit="10" d="
			M534.104,301.255c3.262-1.237,9.787-3.938,12.037-4.837"/>
		<path fill="none" stroke="#000000" stroke-width="4" stroke-linecap="round" stroke-linejoin="round" stroke-miterlimit="10" d="
			M532.979,293.718c5.764-2.363,21.654-9.915,24.074-0.562c1.951,7.537-13.1,11.927-20.699,15.525"/>
		
			<path fill="#9A5D28" stroke="#000000" stroke-width="6" stroke-linecap="round" stroke-linejoin="round" stroke-miterlimit="10" d="
			M127.301,200.344c-9.688,0.129-16.489-2.016-21.206-5.297c-4.106,11.89-5.075,18.601-4.215,28.921
			c0.937,11.242,6.6,26.849,5.4,43.65c-0.516,7.225-5.807,22.05-11.003,31.05c-5.197,9-2.947,13.05-15.547,13.95
			s-23.4-0.9-33.3,3.15s-19.35,0.45-20.7-2.7c-1.35-3.15-2.003-10.305-3.6-18c-1.102-5.312-3.693-10.994-8.1-13.05
			c-2.347-1.095-2.355,6.01-4.5,7.65c-2.55,1.95-9.493,0.9-6.997,7.65s13.296,25.65,25.446,29.7s14.85-0.45,25.65-3.15
			c10.8-2.7,30.193,3.6,41.647-3.6c11.453-7.2,18.653-0.45,29.453-9.45c10.8-9,18.332-15.047,23.972-26.211
			c4.237-8.386-7.535-23.715,4.919-51.753C142.457,224.926,132.646,213.1,127.301,200.344z"/>
		
			<path fill="#9A5D28" stroke="#000000" stroke-width="6" stroke-linecap="round" stroke-linejoin="round" stroke-miterlimit="10" d="
			M531.479,294.618c0,0-10.871,9.182-15,15.6c-4.213,6.55-10.5,18-20.1,11.7c-11.344-7.444-4.852-6.211-23.4-16.2
			c-19.5-10.5-10.199-19.5-7.5-24.9s10.199-19.152,10.205-35.399c0.006-19.652-3.293-19.973-5.406-23.101
			c-2.123-3.144-4.592-1.856-3.299-13.5c1.342-12.088,1.275-23.245,1.221-26.454c-4.729,7.539-14.178,10.599-28.609,12.035
			c-2.518,7.217-5.969,13.348-9.975,18.526c-1.711,10.397-0.807,26.077,5.863,37.292c5.871,9.869-0.123,26.583-1.5,32.4
			c-2.77,11.693-7.801,20.4,5.893,28.8c14.721,9.031,30.707,17.4,37.908,21.6c7.199,4.2,21.6,3.9,26.699,7.2
			c3.836,2.482,13.199-3.3,15-9.9c1.207-4.427,4.199-15,16.199-20.7C533.88,302.718,531.479,294.618,531.479,294.618z"/>
		
			<path fill="#9A5D28" stroke="#000000" stroke-width="6" stroke-linecap="round" stroke-linejoin="round" stroke-miterlimit="10" d="
			M159.479,104.718c31.95-19.35,91.35-23.845,117.45-23.85c84.601-0.016,113.876,7.626,134.907,23.64
			c21.906,16.681,32.93,45.5,32.066,66.578c4.094-0.425,7.695-0.987,11-1.805c-0.201-31.302-17.109-60.159-40.725-73.788
			c9.926-2.544,18.246-4.586,29.779-5.29c-1.334-4.254-2.178-8.436-5.029-14.286c-3.807-7.813-16.648-13.95-24.75-19.8
			c-8.1-5.85-20.699-22.95-32.398-28.35c-11.701-5.4-37.801-13.95-51.836-19.8c-14.033-5.85-44.015-4.5-55.277-4.95
			c-11.263-0.45-35.538,7.65-49.488,10.8c-13.95,3.15-25.65,12.15-31.5,14.4s-13.95,12.6-18,18.9c-4.05,6.3-15.3,7.65-21.6,14.4
			s-11.25,8.55-17.55,13.05c-6.3,4.5-9,11.7-12.6,23.162c8.43,1.108,16.011,2.354,24.369,5.188
			c-24.188,17.255-35.916,40.917-36.011,74.751c3.598,1.135,7.147,1.907,10.494,1.96
			C120.719,137.599,142.932,114.74,159.479,104.718z"/>
		
			<path fill="#9A5D28" stroke="#000000" stroke-width="6" stroke-linecap="round" stroke-linejoin="round" stroke-miterlimit="10" d="
			M123.03,183.468c-0.107-1.298-0.186-2.576-0.248-3.839c-3.347-0.053-6.896-0.825-10.494-1.96
			c-5.322-1.679-10.753-4.161-15.808-6.351c-0.829,6.684,0.451,17.355,9.615,23.729c4.717,3.281,11.519,5.426,21.206,5.297
			C124.982,194.812,123.493,189.107,123.03,183.468z"/>
		
			<path fill="#9A5D28" stroke="#000000" stroke-width="6" stroke-linecap="round" stroke-linejoin="round" stroke-miterlimit="10" d="
			M471.485,161.096c-5.285,4.22-10.41,6.657-16.582,8.185c-3.305,0.818-6.906,1.379-11,1.805c-0.01,0.227-0.012,0.458-0.023,0.683
			c-0.457,8.515-1.984,16.025-4.289,22.631c14.432-1.437,23.881-4.497,28.609-12.035
			C471.282,177.447,472.362,170.628,471.485,161.096z"/>
		<path fill="none" stroke="#000000" stroke-width="6" stroke-linecap="round" stroke-linejoin="round" stroke-miterlimit="10" d="
			M272.879,3c1.35,10.818,3.6,25.218,3.6,35.118s-0.9,30.15,0.45,42.75"/>
		<path fill="none" stroke="#000000" stroke-width="6" stroke-linecap="round" stroke-linejoin="round" stroke-miterlimit="10" d="
			M152.619,63.019c0.111,7.291,3.192,32.953,6.792,41.741"/>
		<path fill="none" stroke="#000000" stroke-width="6" stroke-linecap="round" stroke-linejoin="round" stroke-miterlimit="10" d="
			M414.179,56.118c-3.148,6.3-10.08,24.894-15.973,39.955"/>
		<path fill="none" d="M387.741,104.904c-36.486-18.777-75.744-6.753-88.07,23.643c-6.766,16.679-3.91,34.076,4.867,48.693
			c6.455,10.75,16.109,20.001,27.527,26.342c17.92,9.953,65.289,14.186,84.822-17.435c2.449-3.965,4.291-8.358,5.506-13.003
			C428.409,150.17,418.774,120.875,387.741,104.904z"/>
		<path fill="none" d="M178.381,110.304c-32.978,16.971-41.796,48.991-33.342,72.479c1.11,3.084,2.505,6.028,4.195,8.764
			c19.534,31.621,66.903,27.388,84.823,17.435c12.806-7.112,23.4-17.88,29.741-30.326c6.999-13.738,8.813-29.522,2.654-44.709
			C254.125,103.55,214.867,91.527,178.381,110.304z"/>
		
			<path fill="#9A5D28" stroke="#000000" stroke-width="6" stroke-linecap="round" stroke-linejoin="round" stroke-miterlimit="10" d="
			M411.837,104.508c-21.031-16.014-50.307-23.656-134.907-23.64c-26.1,0.005-85.5,4.5-117.45,23.85
			c-16.547,10.021-38.761,32.881-36.698,74.911c0.062,1.264,0.141,2.541,0.248,3.839c0.463,5.639,1.953,11.343,4.271,16.875
			c5.345,12.756,15.156,24.583,27.32,32.509c9.516,6.201,20.472,10.015,31.858,10.015c53.41,0,48.034-28.337,73.998-38.623
			c-0.418-1.038-0.647-2.118-0.647-3.229c0-7.953,11.282-14.4,25.2-14.4c13.919,0,25.2,6.447,25.2,14.4
			c0,0.932-0.157,1.842-0.455,2.724c28.641,8.941,13.96,33.729,73.354,33.729c11.596,0,32.455-6.402,46.486-24.543
			c4.006-5.178,7.457-11.309,9.975-18.526c2.305-6.606,3.832-14.116,4.289-22.631c0.012-0.225,0.014-0.456,0.023-0.683
			C444.767,150.007,433.743,121.189,411.837,104.508z M263.798,178.656c-6.341,12.446-16.935,23.213-29.741,30.326
			c-17.92,9.953-65.289,14.186-84.823-17.435c-1.69-2.736-3.085-5.679-4.195-8.764c-8.454-23.488,0.364-55.508,33.342-72.479
			c36.486-18.777,75.743-6.754,88.071,23.643C272.611,149.134,270.797,164.918,263.798,178.656z M422.394,173.144
			c-1.215,4.646-3.057,9.038-5.506,13.003c-19.533,31.621-66.902,27.388-84.822,17.435c-11.418-6.341-21.072-15.591-27.527-26.342
			c-8.777-14.618-11.633-32.014-4.867-48.693c12.326-30.396,51.584-42.42,88.07-23.643
			C418.774,120.875,428.409,150.17,422.394,173.144z"/>
	</g>
</g>
</svg>
